<svg width="77" height="17" viewBox="0 0 77 17" fill="none" xmlns="http://www.w3.org/2000/svg">
<path d="M0 16.8V2.8H5.82C6.62 2.8 7.34 2.99333 7.98 3.38C8.63333 3.76667 9.15333 4.29333 9.54 4.96C9.92667 5.62667 10.12 6.37333 10.12 7.2C10.12 8.04 9.92667 8.8 9.54 9.48C9.15333 10.1467 8.63333 10.68 7.98 11.08C7.34 11.48 6.62 11.68 5.82 11.68H2.6V16.8H0ZM2.6 9.28H5.64C5.97333 9.28 6.27333 9.18667 6.54 9C6.82 8.81333 7.04 8.56667 7.2 8.26C7.37333 7.95333 7.46 7.60667 7.46 7.22C7.46 6.83333 7.37333 6.49333 7.2 6.2C7.04 5.89333 6.82 5.65333 6.54 5.48C6.27333 5.29333 5.97333 5.2 5.64 5.2H2.6V9.28Z" fill="#2C2C2C"/>
<path d="M18.9111 17C17.9111 17 16.9844 16.82 16.1311 16.46C15.2778 16.1 14.5311 15.6 13.8911 14.96C13.2644 14.3067 12.7778 13.54 12.4311 12.66C12.0844 11.78 11.9111 10.82 11.9111 9.78C11.9111 8.74 12.0844 7.78 12.4311 6.9C12.7778 6.02 13.2644 5.26 13.8911 4.62C14.5311 3.96667 15.2778 3.46 16.1311 3.1C16.9844 2.74 17.9111 2.56 18.9111 2.56C19.9244 2.56 20.8578 2.74 21.7111 3.1C22.5644 3.46 23.3044 3.96667 23.9311 4.62C24.5578 5.27333 25.0444 6.04 25.3911 6.92C25.7378 7.78667 25.9111 8.74 25.9111 9.78C25.9111 10.8067 25.7378 11.76 25.3911 12.64C25.0444 13.52 24.5578 14.2867 23.9311 14.94C23.3044 15.5933 22.5644 16.1 21.7111 16.46C20.8578 16.82 19.9244 17 18.9111 17ZM18.9111 14.52C19.5511 14.52 20.1311 14.4067 20.6511 14.18C21.1844 13.94 21.6444 13.6067 22.0311 13.18C22.4178 12.74 22.7178 12.2333 22.9311 11.66C23.1578 11.0867 23.2711 10.46 23.2711 9.78C23.2711 9.1 23.1578 8.47333 22.9311 7.9C22.7178 7.32667 22.4178 6.82667 22.0311 6.4C21.6444 5.96 21.1844 5.62667 20.6511 5.4C20.1311 5.16 19.5511 5.04 18.9111 5.04C18.2844 5.04 17.7044 5.16 17.1711 5.4C16.6378 5.62667 16.1778 5.95333 15.7911 6.38C15.4044 6.80667 15.1044 7.30667 14.8911 7.88C14.6778 8.45333 14.5711 9.08667 14.5711 9.78C14.5711 10.46 14.6778 11.0933 14.8911 11.68C15.1044 12.2533 15.4044 12.7533 15.7911 13.18C16.1778 13.6067 16.6378 13.94 17.1711 14.18C17.7044 14.4067 18.2844 14.52 18.9111 14.52Z" fill="#2C2C2C"/>
<path d="M32.4905 16.8L27.2585 0H30.5225L33.4985 9.912C33.5945 10.216 33.6825 10.552 33.7625 10.92C33.8425 11.288 33.9145 11.656 33.9785 12.024C34.0425 12.376 34.0985 12.704 34.1465 13.008C34.1945 13.312 34.2425 13.568 34.2905 13.776L33.6425 13.752C33.8345 13 33.9865 12.392 34.0985 11.928C34.2105 11.464 34.3065 11.08 34.3865 10.776C34.4825 10.456 34.5785 10.16 34.6745 9.888L37.5065 2.64H40.1705L42.9305 9.888C43.0905 10.336 43.2345 10.768 43.3625 11.184C43.4905 11.584 43.5945 11.984 43.6745 12.384C43.7705 12.768 43.8585 13.168 43.9385 13.584L43.3625 13.704C43.4265 13.32 43.4745 13.008 43.5065 12.768C43.5385 12.528 43.5705 12.312 43.6025 12.12C43.6345 11.928 43.6665 11.744 43.6985 11.568C43.7305 11.376 43.7785 11.152 43.8425 10.896C43.9225 10.624 44.0185 10.28 44.1305 9.864L47.0825 0H50.3225L45.0665 16.8H42.8105L38.5385 6.576L38.8265 6.672L34.7705 16.8H32.4905Z" fill="#2C2C2C"/>
<path d="M52.6133 16.8V2.8H61.7733V5.16H55.1733V14.44H61.8533V16.8H52.6133ZM53.8133 10.8V8.48H60.7533V10.8H53.8133Z" fill="#2C2C2C"/>
<path d="M65.1133 16.8V2.8H71.1933C72.0333 2.8 72.7999 3 73.4933 3.4C74.1866 3.78667 74.7333 4.32 75.1333 5C75.5466 5.66667 75.7533 6.42 75.7533 7.26C75.7533 8.06 75.5466 8.8 75.1333 9.48C74.7333 10.1467 74.1866 10.68 73.4933 11.08C72.8133 11.4667 72.0466 11.66 71.1933 11.66H67.6533V16.8H65.1133ZM73.2333 16.8L69.6733 10.48L72.3533 9.98L76.3133 16.82L73.2333 16.8ZM67.6533 9.4H71.2133C71.5999 9.4 71.9333 9.31333 72.2133 9.14C72.5066 8.95333 72.7333 8.7 72.8933 8.38C73.0533 8.06 73.1333 7.70667 73.1333 7.32C73.1333 6.88 73.0333 6.5 72.8333 6.18C72.6333 5.86 72.3533 5.60667 71.9933 5.42C71.6333 5.23333 71.2199 5.14 70.7533 5.14H67.6533V9.4Z" fill="#2C2C2C"/>
</svg>
